<svg width="27" height="23" viewBox="0 0 27 23" fill="none" xmlns="http://www.w3.org/2000/svg">
<path id="Vector" fill-rule="evenodd" clip-rule="evenodd" d="M14.5532 0.646865C14.4639 0.466174 14.321 0.313146 14.1414 0.205887C13.9618 0.0986278 13.753 0.041626 13.5398 0.041626C13.3266 0.041626 13.1179 0.0986278 12.9383 0.205887C12.7587 0.313146 12.6158 0.466174 12.5264 0.646865L9.3233 7.12603L1.73288 7.96665C1.52111 7.98999 1.32093 8.06947 1.15604 8.19567C0.99115 8.32188 0.86845 8.48953 0.802461 8.67879C0.736473 8.86805 0.729959 9.071 0.783691 9.2636C0.837423 9.45621 0.94915 9.63042 1.10565 9.76561L6.7195 14.6094L5.22954 21.6094C5.18816 21.8045 5.2075 22.0066 5.28529 22.1918C5.36307 22.377 5.49604 22.5375 5.66848 22.6544C5.84092 22.7713 6.04561 22.8397 6.25837 22.8515C6.47112 22.8632 6.68303 22.8179 6.86905 22.7208L13.5398 19.2354L20.2106 22.7208C20.3967 22.8183 20.6089 22.8639 20.822 22.8523C21.0351 22.8407 21.2401 22.7722 21.4128 22.6551C21.5855 22.538 21.7186 22.3772 21.7963 22.1917C21.874 22.0061 21.893 21.8037 21.8512 21.6083L20.3613 14.6104L25.974 9.76561C26.1305 9.63042 26.2422 9.45621 26.296 9.2636C26.3497 9.071 26.3432 8.86805 26.2772 8.67879C26.2112 8.48953 26.0885 8.32188 25.9236 8.19567C25.7587 8.06947 25.5585 7.98999 25.3468 7.96665L17.7552 7.12499L14.5532 0.646865Z" fill="#4C4C4C"/>
</svg>
