<svg width="28" height="25" viewBox="0 0 28 25" fill="none" xmlns="http://www.w3.org/2000/svg">
<g id="iconamoon:star-fill">
<path id="Vector" fill-rule="evenodd" clip-rule="evenodd" d="M15.2175 1.64687C15.1282 1.46617 14.9853 1.31315 14.8057 1.20589C14.6261 1.09863 14.4173 1.04163 14.2041 1.04163C13.9909 1.04163 13.7822 1.09863 13.6026 1.20589C13.423 1.31315 13.2801 1.46617 13.1907 1.64687L9.98761 8.12603L2.39719 8.96665C2.18542 8.98999 1.98524 9.06947 1.82035 9.19567C1.65546 9.32188 1.53276 9.48953 1.46677 9.67879C1.40078 9.86805 1.39427 10.071 1.448 10.2636C1.50173 10.4562 1.61346 10.6304 1.76996 10.7656L7.38381 15.6094L5.89385 22.6094C5.85247 22.8045 5.87181 23.0066 5.94959 23.1918C6.02738 23.377 6.16035 23.5375 6.33279 23.6544C6.50523 23.7713 6.70992 23.8397 6.92267 23.8515C7.13543 23.8632 7.34734 23.8179 7.53336 23.7208L14.2041 20.2354L20.8749 23.7208C21.061 23.8183 21.2732 23.8639 21.4863 23.8523C21.6994 23.8407 21.9044 23.7722 22.0771 23.6551C22.2498 23.538 22.3829 23.3772 22.4606 23.1917C22.5383 23.0061 22.5574 22.8037 22.5155 22.6083L21.0256 15.6104L26.6383 10.7656C26.7948 10.6304 26.9065 10.4562 26.9603 10.2636C27.014 10.071 27.0075 9.86805 26.9415 9.67879C26.8755 9.48953 26.7528 9.32188 26.5879 9.19567C26.423 9.06947 26.2229 8.98999 26.0111 8.96665L18.4195 8.12499L15.2175 1.64687Z" fill="white"/>
</g>
</svg>
